<?xml version="1.0" standalone="no"?><!DOCTYPE svg PUBLIC "-//W3C//DTD SVG 1.1//EN" "http://www.w3.org/Graphics/SVG/1.1/DTD/svg11.dtd"><svg t="1534329530754" class="icon" style="" viewBox="0 0 1024 1024" version="1.1" xmlns="http://www.w3.org/2000/svg" p-id="3828" xmlns:xlink="http://www.w3.org/1999/xlink" width="200" height="200"><defs><style type="text/css"></style></defs><path d="M1008.27383 593.728396c-3.371794-32.724309-20.828374-54.610782-25.300222-59.736523L880.241852 392.69273l-38.240953-83.381036c-0.105401-0.229221-0.214894-0.456395-0.329505-0.682545-24.105001-47.318702-51.16224-50.235125-59.122539-49.969065l-43.089377 0c-10.172687 0-18.419512 8.246825-18.419512 18.419512 0 10.172687 8.246825 18.419512 18.419512 18.419512l43.514049 0c0.027629 0 0.055259 0 0.082888 0 1.62194 0.398066 12.521175 3.956102 25.622564 29.52443l38.84368 84.695984c0.508583 1.109264 1.12666 2.165316 1.845021 3.152806l104.347556 143.520741c0.475837 0.653893 0.99363 1.276063 1.550309 1.861394 0.137123 0.143263 13.547551 14.8318 16.266475 38.360679l0 174.710091L848.106967 771.325233c-5.02955 0-9.840112 2.056845-13.316284 5.692652-3.475148 3.635807-5.311982 8.535397-5.084808 13.558807 0.051165 1.130753 0.170892 2.085498 0.260943 2.739391-0.38374 23.546276-19.654642 42.583864-43.287899 42.583864-23.63428 0-42.906206-19.035542-43.291992-42.577724 0.089028-0.64366 0.207731-1.581008 0.261966-2.688225 0.242524-5.033643-1.587148-9.94756-5.063319-13.595646-3.475148-3.648087-8.29492-5.713119-13.334703-5.713119l-32.879851 0L692.37102 222.327598c0-0.76134-0.047072-1.52268-0.14224-2.278903l-0.491187-3.943822c-1.149173-9.219989-8.985652-16.140609-18.277272-16.140609L40.729633 199.964264c-16.038278 0-29.086455 13.048177-29.086455 29.086455l0 550.028105c0 16.038278 13.048177 29.086455 29.086455 29.086455l141.022851 0c7.264451 36.764322 39.755446 64.574714 78.616522 64.574714s71.351048-27.811416 78.615499-64.574714l195.798385 0c0.326435 0 0.598634-0.00614 0.925069-0.022513 0.394996-0.023536 39.746236-1.619894 63.4808 19.267832 7.635911 6.719028 19.276019 5.980201 25.996071-1.658779 6.720052-7.636934 5.978155-19.274996-1.658779-25.996071-33.589003-29.561269-82.887802-28.668946-89.137133-28.428469L321.797054 771.32728c-5.028527 0-9.837042 2.055822-13.31219 5.689582-3.475148 3.634784-5.313006 8.531304-5.088902 13.553691 0.051165 1.134847 0.170892 2.093684 0.260943 2.7486-0.38374 23.546276-19.654642 42.583864-43.286875 42.583864-23.632233 0-42.902112-19.034519-43.287899-42.576701 0.089028-0.641613 0.207731-1.575892 0.260943-2.679016 0.246617-5.03569-1.582031-9.951653-5.059226-13.601786s-8.296967-5.717212-13.338796-5.717212L48.482201 771.328303 48.482201 236.803287l607.05082 0L655.533021 790.015921c0 5.047969 2.071172 9.873882 5.730515 13.351076 3.659343 3.477194 8.609075 5.308913 13.624299 5.0449l4.839215-0.245593 28.333302 0c7.265474 36.764322 39.757492 64.574714 78.620615 64.574714 38.862099 0 71.352071-27.811416 78.616522-64.574714l113.984031 0c16.040325 0 29.090549-13.048177 29.090549-29.086455L1008.372068 595.616396C1008.370021 594.986039 1008.338299 594.356706 1008.27383 593.728396z" p-id="3829"></path><path d="M803.815205 422.276513c2.549056 0 5.139044-0.532119 7.611352-1.655709 9.260921-4.209882 13.355169-15.129582 9.146311-24.390503l-26.205848-57.650001c-4.210905-9.260921-15.130605-13.357216-24.391527-9.146311-9.260921 4.209882-13.355169 15.129582-9.146311 24.390503l26.205848 57.650001C790.122345 418.264129 796.813744 422.276513 803.815205 422.276513z" p-id="3830"></path></svg>